<svg id="Layer_1" data-name="Layer 1" xmlns="http://www.w3.org/2000/svg" viewBox="0 0 78.3 74.4"><title>chicken</title><path d="M15.8,71.6a2.55,2.55,0,0,1-1.5.9,2.27,2.27,0,0,1-.4.1,10.07,10.07,0,0,0,2.5.3h3.7a1,1,0,0,1,.8.7,3.09,3.09,0,0,1-.2.8,13.27,13.27,0,0,0,3.4-.9A13.58,13.58,0,0,1,29,72.3h0.3a4.27,4.27,0,0,1,2,.6,11.22,11.22,0,0,0,1.3.5c-0.1-.2-0.3-0.3-0.4-0.5a7.05,7.05,0,0,1-.7-0.9l-0.2-.4,0.4-.2a4.09,4.09,0,0,1,2.5-.7,14.77,14.77,0,0,1,3.5.5h0a12.66,12.66,0,0,0,2.6.4,14.62,14.62,0,0,0-2-.5,7,7,0,0,1-3-1L35.2,70V69.8a8.56,8.56,0,0,1,.9-4.6,12.34,12.34,0,0,0,.8-2.3,9.59,9.59,0,0,1,4.4-5.8c-4.3-.4-9.8-4.9-12.1-8.3-3.3-5.2-1.7-9.6-.1-14.3,0.3-.9.7-1.8,1-2.8L31,32v0.2l-0.3.9-0.6,1.8c-1.7,4.7-3.1,8.7,0,13.5,2.4,3.5,8.4,8.4,12.5,7.9v0.3a44.3,44.3,0,0,1,4.7-1.7c2.8-.8,5.5-1.6,6.9-3.5A14.14,14.14,0,0,0,55.5,49a9.55,9.55,0,0,1,2.3-3.6V44.6H57.7l-2.3.8,1.9-1.6c1.2-1,4.7-5.3,4-6.1L61,37.3l1-1.6,0.1-.1c1.8-1.4,6.6-5.4,7.8-7.1h0A32.27,32.27,0,0,0,64,29.8a22,22,0,0,1-3.3.8,0.68,0.68,0,0,1-.6-0.3L60,29.9l0.2-.2c1.2-1.5,4.7-2.8,7.8-4a18.41,18.41,0,0,0,4.3-1.9c1.2-1,1.2-1.4,1.2-1.4a1.74,1.74,0,0,0-1.1-.2c-2.5,0-7.4,1.4-7.5,1.4l-0.3-.9c5.2-1.5,13.6-4.8,13.7-7s-5.7-4.4-9.4-5.3a5.86,5.86,0,0,1-2.7-1.8,3.69,3.69,0,0,0-2-1.3c-3.2-.4-5.7,3.6-7.5,6.5-0.4.6-.8,1.2-1.1,1.7l-0.1.1c-1,.7-2.1,1.6-3.3,2.6-4.9,4-11.5,9.5-18.1,9.5a6.15,6.15,0,0,1-1.4-.1c-5.3,0-7.5-5.5-9.2-10A19.79,19.79,0,0,0,21.3,13c-2.5-3.3-5.1-6.2-9.5-6.9L11.3,6l0.1-.5A28.81,28.81,0,0,0,11.7.9h0c-1.2,2.6-2.3,2.9-3,2.9H8.4l-0.1.6L7.9,4.1c-0.4-.3-0.4-1-0.5-1.9,0-1.3-.1-2-0.6-2.2a7.64,7.64,0,0,0-.5,3.6L6.6,4.4,5.8,4.3a6.4,6.4,0,0,1-1.1-.6C4.3,3.5,3.6,3.1,3.3,3c0,1.4.5,4.4,0.9,4.8L4.4,8l-0.1.4a8.82,8.82,0,0,1-2,2.4,6.58,6.58,0,0,0-2.3,3,5.16,5.16,0,0,1,1.1-.2A7.57,7.57,0,0,1,4.7,15a8.94,8.94,0,0,0,1.6.9L6.8,16l-0.2.5C6.1,17.9,5.5,19.1,5,20.3c-1.2,2.5-2.4,4.9-2,8.9C4.3,42.7,9,49.7,17.4,50.6h0.2c1.9,0.9,3.2,2.9,4.6,5,1.9,2.8,3.8,5.7,7,5.9h0.5V62c-0.3,4-1.7,7-4.3,8.8l-0.2.1H25a9.54,9.54,0,0,0-1.7.4c-1.8.5-4.4,1.2-6.4,0.9M8.4,9.9a1.2,1.2,0,1,1,1.2,1.2A1.29,1.29,0,0,1,8.4,9.9Z" transform="translate(0)"/></svg>