<svg id="Layer_1" data-name="Layer 1" xmlns="http://www.w3.org/2000/svg" viewBox="0 0 87.1 62.09"><defs><style>.cls-1{fill:#1e120d;}</style></defs><title>cow</title><path class="cls-1" d="M85.52,45.07V32a9.52,9.52,0,0,0-2.34-6.63,24.82,24.82,0,0,1,.22,2.65s0,0.07,0,.1A9.34,9.34,0,0,1,84.16,32v13a6.28,6.28,0,0,0-1.59,3.8c0,2.5,2.27,4.53,2.27,4.53s2.27-2,2.27-4.53A6.29,6.29,0,0,0,85.52,45.07Z"/><path class="cls-1" d="M55.07,49.77v2.64a0.85,0.85,0,1,0,1.7,0V50.53a9.1,9.1,0,0,0,2.09.41v2.2a0.85,0.85,0,1,0,1.7,0V50.92a9.07,9.07,0,0,0,1.85-.39v1.88a0.85,0.85,0,1,0,1.7,0V49.77A7.66,7.66,0,0,0,67,46.85l-14.86,0A7.65,7.65,0,0,0,55.07,49.77Z"/><path class="cls-1" d="M73.52,12.44c-4.79-2.08-10.41-2-13.43-2H59.35l-25.84.07-9.93,0c-0.23,0-.44,0-0.66,0a4.85,4.85,0,0,0,.43-0.31L24,9.66c1.86-1.49,3.15-2.49,1.56-4.5C23.8,3,22.36,4.81,20.21,6.58,19.47,6.18,16.93,4.51,15.9,0a7.85,7.85,0,0,0-.72,6.24,7.61,7.61,0,0,0,.37.93A5.27,5.27,0,0,0,14.36,7C11.14,7,9.22,8.9,8,13.28a14.94,14.94,0,0,1-1.69,3.89,4.63,4.63,0,0,0-.87-0.23A4.62,4.62,0,0,0,0,21.52c0,2.56,2.18,5.79,4.75,5.79H18.17l0.12,0.21s1.4,2.35,4.64,8.46A22.72,22.72,0,0,0,31,44.13l0.18,0.1,3.06,14.32-1.74,3.54h7.32c0-.81,0-15.77,0-15.77V45.89L67.74,46l2.75,12.54-1.74,3.54h7.32c0-.81,0-17.53,0-17.53l0.18-.13c1.08-.78,6.31-5.12,6.31-15.44q0-.44,0-0.89C82.34,20.94,79.3,14.95,73.52,12.44Z"/></svg>