<svg xmlns="http://www.w3.org/2000/svg" viewBox="0 0 76.82 54.06"><title>Untitled-2</title><path d="M15.35,18.48a2.5,2.5,0,1,0,2.5,2.5A2.5,2.5,0,0,0,15.35,18.48Z"/><path d="M73.59,34.64a9.9,9.9,0,0,0-1.42-5.85c1.11-1.41,1.51-3.54,1.51-6L76,11.07c0-4.24,2.7-7.67-1.53-7.67H70.87a7.67,7.67,0,0,0-7.67,7.67l-3.58,6.87a31.47,31.47,0,0,0-8-5.43s0-.08,0-0.12c-4.27-.15-2.49-1.47.2-1.42,1-6.61,3.33-12-4.27-10.82-6.56,1-18.21,4-24.36,8.67C16,10.09,0,18.4,0,26.47c0,0.65,9.14,13.24,21.79,15.86C26.87,48.12,40.86,51.83,48.3,53c8.43,1.29,4.7-5.44,4-13-4.05,1.38-2.23-.74.22-1.58,1.85-1,3.51-1.9,4.94-2.81l5.64,10.8a7.66,7.66,0,0,0,7.67,7.66h3.58c4.23,0,1.53-3.43,1.53-7.66ZM14.82,24.81A3.83,3.83,0,1,1,18.65,21,3.83,3.83,0,0,1,14.82,24.81Z"/></svg>