<svg id="Layer_1" data-name="Layer 1" xmlns="http://www.w3.org/2000/svg" viewBox="0 0 87.38 51.45"><title>pic</title><path d="M0,28.6l0.92,6.82a30.23,30.23,0,0,0,4.42,0C8.88,40,16.88,40.08,22.28,42.78c0,4.16-4.8,5.47-5.16,8.11,0.66,0.26,1.28-1.07,1.85-1s1,1.6,1.51,1.55c4.15-.38,6.09-5.18,6.94-9.4,7.16,0.9,3.11,5.92,1.47,9.22,0.84-.27,2.89-1.44,3.66-1.32a1.77,1.77,0,0,0,2.61.58c0-2.87,1.71-5.82.73-8.47,7.77-.31,16.7-1.05,23.95-4.42,3-1.4,6.13-4.7,7.36-.74,2,6.59-5.47,10.73-6.62,13.64,0.34,0.09,1.68-.88,2-0.81s0.4,1.13,0,1.13c6.35,0.44,8-5.83,9.08-11.37,4.38,2.75.71,7.87-.74,11,1.58-.32,1.16-0.26,1.84.74,5.81,1.29,6.46-8,5.52-12.89-0.36-2-2.16-2.5-2.21-4.06-0.05-2,1.86-2.71,2.58-4,1.33-2.42,1-4.64,2.21-6.64,2.18,0.52,2.25,3.16,2.58,5.53,1.32-.76.59-3.42,0.36-4.79,2.91-.77,5.38-5.71,1.85-8.47a3.08,3.08,0,0,0-4.42,1.84c-3.27-2.85-3.42-5.81-5.9-8.11C66.94,1.87,58.55-.87,43.82.23s-28.35,15.9-29.29,16c0.66-.09-5.5-1.87-7-2.21s-2.83-1-3.68-1.11c-0.2,3.41,5.51,6.07,5.9,8.84C10.46,26.75,0,28.6,0,28.6ZM82,19.2c1.75-3.12,4.83,1.93,1.47,2.58A7,7,0,0,1,82,19.2ZM12.47,24.61a2.2,2.2,0,1,1,2.2,2.2A2.19,2.19,0,0,1,12.47,24.61Z"/></svg>