<?xml version="1.0" encoding="utf-8"?>
<!-- Generator: Adobe Illustrator 12.0.0, SVG Export Plug-In . SVG Version: 6.00 Build 51448)  -->
<!DOCTYPE svg PUBLIC "-//W3C//DTD SVG 1.1//EN" "http://www.w3.org/Graphics/SVG/1.1/DTD/svg11.dtd" [
	<!ENTITY ns_svg "http://www.w3.org/2000/svg">
	<!ENTITY ns_xlink "http://www.w3.org/1999/xlink">
]>
<svg  version="1.1" id="Ebene_2" xmlns="&ns_svg;" xmlns:xlink="&ns_xlink;" width="374.627" height="409.721"
	 viewBox="0 0 374.627 409.721" overflow="visible" enable-background="new 0 0 374.627 409.721" xml:space="preserve">
<g>
	<path fill-rule="evenodd" clip-rule="evenodd" fill="#07752C" d="M152.756,407.553c0,0,17.041,4.178,33.218,0.585
		c0.505-0.112,1.098-0.321,1.564-0.787c0.507-0.694,0.434-0.694,0.533-1.556c2.317-20.065,28.903-165.708,64.113-232.551
		c9.719-22.098,14.487-25.032,27.141-25.673c55.932-5.227,88.94-38.969,88.94-97c0.55-4.87,0.612-16.911,3.013-29.463
		c2.222-11.613,7.489-20.198-3.514-15.797c-14.121,5.135-22.238,3.898-45.161,5.182c-34.651,1.94-102.878,29.158-101.45,108.071
		c0.272,16.089,3.987,9.715,8.546,4.184c2.888-3.503,5.594-6.997,8.73-11.211c0.515-0.692,26.407-38.144,48.963-48.046
		c8.556-3.756,10.651-0.408,6.785,3.484c-45.479,46.763-86.557,129.651-110.635,220.737c-2.983,11.6-13.409,40.948-21.4,7.207
		c-3.301-13.937-18.871-124.025-67.899-203.783C58.995,33.792,8.96,3.258,8.96,3.258s-6.37-3.675-7.967-3.065
		c-2.928,1.118,2.416,6.515,3.274,7.54C4.773,8.336,17.89,21.587,19.514,23.727c9.831,12.083,85.414,76.807,127.057,359.8
		c2.425,16.479,2.782,16.971,3.247,19.271c0.45,2.229,0.519,3.387,1.324,4.192C151.57,407.419,152.756,407.553,152.756,407.553z"/>
	<path fill-rule="evenodd" clip-rule="evenodd" fill="none" stroke="#006431" stroke-width="0.25" stroke-miterlimit="3.8637" d="
		M152.756,407.553c0,0,17.041,4.178,33.218,0.585c0.505-0.112,1.098-0.321,1.564-0.787c0.507-0.694,0.434-0.694,0.533-1.556
		c2.317-20.065,28.903-165.708,64.113-232.551c9.719-22.098,14.487-25.032,27.141-25.673c55.932-5.227,88.94-38.969,88.94-97
		c0.55-4.87,0.612-16.911,3.013-29.463c2.222-11.613,7.489-20.198-3.514-15.797c-14.121,5.135-22.238,3.898-45.161,5.182
		c-34.651,1.94-102.878,29.158-101.45,108.071c0.272,16.089,3.987,9.715,8.546,4.184c2.888-3.503,5.594-6.997,8.73-11.211
		c0.515-0.692,26.407-38.144,48.963-48.046c8.556-3.756,10.651-0.408,6.785,3.484c-45.479,46.763-86.557,129.651-110.635,220.737
		c-2.983,11.6-13.409,40.948-21.4,7.207c-3.301-13.937-18.871-124.025-67.899-203.783C58.995,33.792,8.96,3.258,8.96,3.258
		s-6.37-3.675-7.967-3.065c-2.928,1.118,2.416,6.515,3.274,7.54C4.773,8.336,17.89,21.587,19.514,23.727
		c9.831,12.083,85.414,76.807,127.057,359.8c2.425,16.479,2.782,16.971,3.247,19.271c0.45,2.229,0.519,3.387,1.324,4.192
		C151.57,407.419,152.756,407.553,152.756,407.553z"/>
</g>
</svg>
