<?xml version="1.0" encoding="utf-8"?>
<!-- Generator: Adobe Illustrator 19.2.1, SVG Export Plug-In . SVG Version: 6.00 Build 0)  -->
<svg version="1.1" id="Ebene_1" xmlns="http://www.w3.org/2000/svg" xmlns:xlink="http://www.w3.org/1999/xlink" x="0px" y="0px"
	 viewBox="0 0 566.9 393.7" style="enable-background:new 0 0 566.9 393.7;" xml:space="preserve">
<g>
	<path d="M513.6,226c-2-0.6-3.8-1.3-5.4-2.2s-2.4-2.1-2.4-3.7c0-3.7,3.4-5.6,10.2-5.6c4.6,0,9.6,0.6,15.1,1.9
		c5.5,1.3,10.2,2.7,14,4.3c2-4,3.8-8.7,5.4-13.9c1.6-5.3,2.5-10.2,2.8-14.8c-6.3-2.2-12.7-3.8-19.2-5s-12.5-1.7-17.9-1.7
		c-6.9,0-13.2,0.9-18.9,2.6c-5.7,1.7-10.6,4.2-14.8,7.5c-4.2,3.2-7.4,7.2-9.7,11.8c-2.3,4.6-3.5,9.7-3.5,15.3c0,8.9,2.5,16,7.6,21.2
		c5,5.2,11.4,8.9,19,11l14.7,4.1c2.4,0.7,4.6,1.5,6.5,2.5c1.9,0.9,2.8,2.3,2.8,4.2c0,1.4-0.5,2.6-1.4,3.5s-2.1,1.5-3.6,2.1
		c-1.4,0.5-3.1,0.8-5,1c-1.9,0.1-3.7,0.2-5.4,0.2c-5,0-10.1-0.5-15.1-1.6s-9.9-2.7-14.5-4.9c-4.6,10.1-7.3,20-8,29.8
		c6.6,2.5,12.9,4.2,18.8,5.2s12.3,1.5,19.2,1.5c8.3,0,15.7-1,22.1-3c6.4-2,11.8-4.8,16.2-8.2c4.4-3.5,7.7-7.6,9.9-12.3
		c2.2-4.8,3.3-9.9,3.3-15.3c0-5.3-0.7-9.9-2.2-13.6c-1.4-3.7-3.4-6.9-5.9-9.5s-5.5-4.7-9.1-6.4c-3.5-1.7-7.5-3.1-11.8-4.2L513.6,226
		z M449.7,188c-3-0.7-6.1-1.2-9.3-1.5c-3.2-0.3-6.1-0.4-8.9-0.4c-2.9,0-5.9,0.1-9,0.4c-3.1,0.3-6.2,0.8-9.4,1.5v81.9
		c-0.6,0.1-1.5,0.3-2.8,0.4s-3.2,0.2-5.6,0.2c-5.9,0-10.3-1.6-13.2-4.8c-2.9-3.2-4.3-9.1-4.3-17.7v-60c-3-0.7-6.1-1.2-9.3-1.5
		c-3.2-0.3-6.1-0.4-8.9-0.4c-2.9,0-5.9,0.1-9,0.4c-3.1,0.3-6.2,0.8-9.4,1.5v63c0,11.2,1.5,20.2,4.5,26.9c3,6.7,7.1,11.8,12.2,15.3
		s11,5.9,17.8,7c6.8,1.2,13.8,1.7,21.2,1.7c3.9,0,7.8-0.2,11.9-0.6c4-0.4,8-1,11.8-1.8s7.4-1.6,10.8-2.5s6.3-1.7,8.7-2.6V188H449.7z
		 M278.1,274.8c-2.2-0.3-4.3-0.9-6.3-1.7c-1.9-0.9-3.6-2.1-4.9-3.8c-1.3-1.7-1.9-3.9-1.9-6.8c0-3.9,1.7-6.9,5.2-9.1
		c3.5-2.2,7.7-3.2,12.7-3.2h12.3V274c-1.2,0.3-3,0.6-5.4,0.9s-4.3,0.4-5.6,0.4C282.4,275.2,280.3,275.1,278.1,274.8 M237,281.4
		c2.5,5,6,9,10.5,12s9.8,5.2,16.1,6.6c6.3,1.4,13.1,2.1,20.6,2.1c8.6,0,16.8-0.8,24.6-2.4c7.8-1.6,14.4-3.2,19.9-4.8v-63.3
		c0-8.1-1.2-15-3.5-20.8s-5.6-10.6-9.8-14.4c-4.2-3.7-9.4-6.5-15.4-8.3s-12.8-2.7-20.3-2.7c-5.5,0-11.6,0.6-18.5,1.7
		c-6.8,1.2-13.7,2.9-20.6,5.2c0,2.9,0.1,5.4,0.3,7.7c0.2,2.2,0.6,4.4,1.1,6.5s1.2,4.1,2.2,6.2c0.9,2,2.1,4.2,3.3,6.7
		c4.9-1.7,9.6-3,14.3-3.8c4.6-0.8,8.6-1.2,12.1-1.2c2.6,0,5.1,0.2,7.6,0.5c2.4,0.4,4.7,1,6.7,1.9s3.7,2.3,5,4s2,3.9,2.2,6.5h-13.2
		c-5.5,0-11.1,0.5-16.8,1.6c-5.8,1.1-11,3-15.8,5.7s-8.6,6.4-11.7,11c-3,4.6-4.5,10.4-4.5,17.5C233.3,270.3,234.5,276.4,237,281.4
		 M178.2,299.4c3.6,0.6,6.9,1,9.9,1.3s5.8,0.4,8.2,0.4s5.2-0.1,8.2-0.4s6.4-0.7,10.2-1.3V188c-3-0.7-6.1-1.2-9.3-1.5
		s-6.1-0.4-8.9-0.4c-2.9,0-5.9,0.1-9,0.4c-3.1,0.3-6.2,0.8-9.4,1.5v38h-32v-38c-3-0.7-6.1-1.2-9.3-1.5s-6.1-0.4-8.9-0.4
		c-2.9,0-5.9,0.1-9,0.4c-3.1,0.3-6.2,0.8-9.4,1.5v111.5c3.6,0.6,6.9,1,9.9,1.3s5.8,0.4,8.2,0.4c2.4,0,5.2-0.1,8.2-0.4
		s6.4-0.7,10.2-1.3v-41h32v40.9H178.2z"/>
	<path d="M279.3,164.3c0,0-1.8-3.3-4.6-7c0.1,0-0.7-1-0.6-1c-0.6-0.9-1.4-1.8-2-2.8c0,0-0.1-0.1-0.1-0.2l0,0
		c-29.7-40.9-80.1-65-133.8-58.4c-44.6,5.5-81.9,30.9-104.1,66.2l0,0c-0.4,0.7-0.8,1.4-1.2,2.1c-0.7,1.1-1.4,2.2-2,3.4
		c-0.7,1.2-1.3,2.4-1.9,3.6c-0.4,0.8-0.9,1.6-1.3,2.4c-0.8,1.6-1.6,3.3-2.4,4.9c-0.2,0.4-0.4,0.8-0.6,1.2c-1.9,4.2-3.6,8.5-5,12.8
		c0,0.1-0.1,0.2-0.1,0.4c-0.7,2-1.3,4-1.9,6c-0.2,0.9-0.5,1.7-0.7,2.6c-0.3,1.3-0.7,2.6-1,3.9c-0.3,1.1-0.5,2.2-0.7,3.3
		s-0.5,2.2-0.7,3.3c-0.2,1.2-0.4,2.4-0.6,3.6c-0.2,1-0.3,2-0.5,3.1c-0.2,1.2-0.3,2.4-0.4,3.7c-0.1,1-0.2,2.1-0.3,3.1
		c-0.1,1.2-0.2,2.4-0.3,3.6c-0.1,1.1-0.1,2.2-0.2,3.2c0,1.2-0.1,2.3-0.1,3.5s0,2.4,0,3.6c0,1.1,0,2.1,0,3.2c0,1.4,0.1,2.8,0.2,4.1
		c0.1,0.9,0.1,1.8,0.2,2.7c0.1,1.7,0.3,3.5,0.5,5.2c0.1,0.5,0.1,1,0.1,1.5c0,0.1,0,0.1,0,0.2c0.3,2.3,0.6,4.5,1,6.8
		c0.2,1,0.4,1.9,0.6,2.9c0.2,1.2,0.5,2.5,0.7,3.7c0.3,1.3,0.6,2.6,0.9,3.8c0.2,0.9,0.4,1.8,0.7,2.6c0.4,1.4,0.8,2.8,1.2,4.2
		c0.2,0.7,0.4,1.5,0.7,2.2c0.5,1.4,1,2.9,1.5,4.3c0.2,0.7,0.5,1.3,0.7,2c0.5,1.5,1.1,2.9,1.7,4.3c0.3,0.6,0.5,1.3,0.8,1.9
		c0.6,1.4,1.2,2.8,1.9,4.2c0.3,0.6,0.6,1.3,0.9,1.9c0.7,1.4,1.3,2.7,2,4.1c0.3,0.7,0.7,1.3,1.1,2c0.7,1.3,1.4,2.6,2.1,3.8
		c0.4,0.7,0.9,1.5,1.3,2.2c0.7,1.2,1.4,2.3,2.2,3.5c0.5,0.8,1.1,1.6,1.7,2.5c0.7,1,1.4,2.1,2.1,3.1c0.6,0.9,1.3,1.8,2,2.7
		c0.7,0.9,1.4,1.8,2.1,2.7c0.7,0.9,1.4,1.7,2.1,2.6c0.7,0.9,1.5,1.8,2.2,2.7c0.5,0.5,1,1.1,1.5,1.6c7.3,8.1,15.4,15.4,24.3,21.6
		c0.2,0.1,0.3,0.2,0.5,0.3c1.8,1.2,3.5,2.4,5.3,3.6c0.7,0.5,1.5,0.9,2.2,1.3c1.3,0.8,2.5,1.5,3.8,2.3c1,0.6,2,1.1,2.9,1.6
		c1.1,0.6,2.1,1.2,3.2,1.7s2.2,1.1,3.3,1.6c1,0.5,2,1,3.1,1.4c1.1,0.5,2.2,1,3.4,1.4c1.1,0.4,2.1,0.9,3.2,1.3s2.1,0.8,3.2,1.2
		c1.2,0.4,2.3,0.8,3.5,1.2c1,0.3,2,0.6,2.9,0.9c1.3,0.4,2.6,0.8,3.9,1.2c0.9,0.2,1.7,0.4,2.6,0.7c1.4,0.4,2.9,0.7,4.4,1.1
		c0.7,0.2,1.5,0.3,2.2,0.5c1.6,0.3,3.2,0.6,4.8,0.9c0.6,0.1,1.2,0.2,1.9,0.3c1.7,0.3,3.4,0.5,5.1,0.7c0.6,0.1,1.1,0.1,1.7,0.2
		c1.7,0.2,3.5,0.4,5.2,0.5c0.6,0,1.2,0.1,1.8,0.1c1.7,0.1,3.4,0.2,5.2,0.2c0.7,0,1.4,0,2.2,0c1.6,0,3.2,0,4.8,0c1,0,2.1-0.1,3.1-0.1
		c1.3-0.1,2.6-0.1,3.9-0.2c2.2-0.2,4.4-0.4,6.6-0.6c0.1,0,0.3,0,0.4,0l0,0c3.2-0.4,6.3-0.9,9.5-1.5c0.7-0.1,1.4-0.3,2-0.4
		c3.1-0.6,6.2-1.4,9.3-2.2c0.1,0,0.2-0.1,0.3-0.1c3-0.8,6-1.8,9-2.9c0.4-0.1,0.8-0.3,1.2-0.4c24.6-8.9,47.1-24.5,64.4-46.6
		c0.6-0.8,1.2-1.7,1.8-2.5c-17.1-4.3-31.5-14.5-41.3-23.2c-3.7,3.9-8.1,8.2-13.7,13.5c-14.6,11.5-32.1,18.3-50.1,20.2
		c-5.6,0.2-12,0.1-20.2,0c-1.2-0.1-2.5-0.2-3.7-0.4c-0.9-0.1-1.8-0.3-2.7-0.4c-1.6-0.3-3.3-0.6-4.9-1c-1.1-0.3-2.2-0.5-3.3-0.8
		c-1.4-0.4-2.8-0.8-4.1-1.2c-1.3-0.4-2.7-0.9-4-1.4c-1.1-0.4-2.2-0.8-3.3-1.3c-1.5-0.6-2.9-1.2-4.4-1.9c-0.9-0.4-1.9-0.9-2.8-1.3
		c-1.5-0.8-3-1.6-4.5-2.4c-0.9-0.5-1.7-1-2.5-1.5c-1.4-0.9-2.9-1.8-4.3-2.8c-0.9-0.6-1.7-1.2-2.6-1.8c-1.3-0.9-2.5-1.9-3.8-2.9
		c-1.2-1-2.3-2-3.5-3c-1.1-1-2.2-1.9-3.2-2.9s-2-2.1-2.9-3.1c-2.1-2.2-4.1-4.5-5.9-6.9c-0.7-0.9-1.4-1.7-2-2.6
		c-1-1.4-1.9-2.8-2.8-4.2c-0.7-1-1.3-2-2-3.1c-0.8-1.4-1.6-2.8-2.3-4.2c-0.6-1.2-1.3-2.4-1.8-3.7c-0.6-1.3-1.3-2.7-1.8-4.1
		c-0.6-1.4-1.2-2.9-1.7-4.4c-0.5-1.2-0.9-2.5-1.3-3.8c-0.6-1.8-1.1-3.7-1.5-5.6c-0.3-1-0.5-2-0.8-3c-0.6-2.9-1.2-5.9-1.5-9
		c-0.4-3-0.6-5.9-0.7-8.9c0-1,0-2.1,0-3.1c0-1.9,0-3.7,0.1-5.6c0.1-1.4,0.2-2.7,0.3-4.1c0.1-1.4,0.3-2.9,0.5-4.3
		c0.2-1.6,0.5-3.2,0.8-4.8c0.2-1,0.4-2,0.7-3c0.4-1.9,0.9-3.8,1.4-5.7v-0.1c2.3-7.5,5.5-14.8,9.5-21.7l0,0c2.1-3.6,4.4-7.1,7-10.4
		c15.9-20.4,38.9-33.4,64.6-36.6c18.5-2.3,36.7,0.8,52.9,8.4c0,0,20.5,5.5,40.6,26.7c0.6-0.5,1.3-0.9,2-1.4
		C245.5,171.9,267.1,162.5,279.3,164.3"/>
	<path d="M260.8,15.7c-0.4,23.1-11.7,45.6-32.5,59.2s-46,15.1-67.3,6.2c0.4-23.1,11.7-45.6,32.5-59.2S239.5,6.8,260.8,15.7"/>
	<path d="M145.9,81.5c-13.7,5.7-29.9,4.8-43.3-3.9C89.3,68.8,82,54.3,81.8,39.5c13.7-5.7,29.9-4.8,43.3,3.9
		C138.4,52.2,145.7,66.7,145.9,81.5"/>
</g>
</svg>
