<svg id="Ebene_1" data-name="Ebene 1" xmlns="http://www.w3.org/2000/svg" viewBox="0 0 544.2 371.29"><title>ohauslogo2</title><path d="M513.6,226a26.49,26.49,0,0,1-5.4-2.2,4.08,4.08,0,0,1-2.4-3.7c0-3.7,3.4-5.6,10.2-5.6a65.62,65.62,0,0,1,15.1,1.9,90.56,90.56,0,0,1,14,4.3,91.74,91.74,0,0,0,5.4-13.9,66,66,0,0,0,2.8-14.8,129.07,129.07,0,0,0-19.2-5,98.77,98.77,0,0,0-17.9-1.7,65.92,65.92,0,0,0-18.9,2.6,44,44,0,0,0-14.8,7.5,33.74,33.74,0,0,0-13.2,27.1c0,8.9,2.5,16,7.6,21.2a41,41,0,0,0,19,11l14.7,4.1a35.22,35.22,0,0,1,6.5,2.5,4.37,4.37,0,0,1,2.8,4.2,4.83,4.83,0,0,1-1.4,3.5,10.37,10.37,0,0,1-3.6,2.1,22.08,22.08,0,0,1-5,1c-1.9.1-3.7,0.2-5.4,0.2a70.46,70.46,0,0,1-15.1-1.6,67,67,0,0,1-14.5-4.9,86.64,86.64,0,0,0-8,29.8,100.79,100.79,0,0,0,18.8,5.2,115.08,115.08,0,0,0,19.2,1.5,74.31,74.31,0,0,0,22.1-3,51.35,51.35,0,0,0,16.2-8.2,34.14,34.14,0,0,0,9.9-12.3,39.7,39.7,0,0,0,1.1-28.9,27.79,27.79,0,0,0-5.9-9.5,30.37,30.37,0,0,0-9.1-6.4,62.83,62.83,0,0,0-11.8-4.2Zm-63.9-38a69.39,69.39,0,0,0-9.3-1.5c-3.2-.3-6.1-0.4-8.9-0.4s-5.9.1-9,.4a79.7,79.7,0,0,0-9.4,1.5v81.9a26,26,0,0,1-2.8.4c-1.3.1-3.2,0.2-5.6,0.2q-8.85,0-13.2-4.8c-2.9-3.2-4.3-9.1-4.3-17.7V188a69.39,69.39,0,0,0-9.3-1.5c-3.2-.3-6.1-0.4-8.9-0.4s-5.9.1-9,.4a79.7,79.7,0,0,0-9.4,1.5v63c0,11.2,1.5,20.2,4.5,26.9a35.71,35.71,0,0,0,12.2,15.3,43.21,43.21,0,0,0,17.8,7,121.39,121.39,0,0,0,21.2,1.7c3.9,0,7.8-.2,11.9-0.6a111.67,111.67,0,0,0,11.8-1.8c3.8-.8,7.4-1.6,10.8-2.5s6.3-1.7,8.7-2.6V188h0.2ZM278.1,274.8a26.63,26.63,0,0,1-6.3-1.7,13,13,0,0,1-4.9-3.8,10.77,10.77,0,0,1-1.9-6.8,10.16,10.16,0,0,1,5.2-9.1c3.5-2.2,7.7-3.2,12.7-3.2h12.3V274a49.35,49.35,0,0,1-5.4.9,46.55,46.55,0,0,1-5.6.4c-1.8-.1-3.9-0.2-6.1-0.5M237,281.4a30.56,30.56,0,0,0,10.5,12,47,47,0,0,0,16.1,6.6,94.52,94.52,0,0,0,20.6,2.1,122.2,122.2,0,0,0,24.6-2.4c7.8-1.6,14.4-3.2,19.9-4.8V231.6a56.22,56.22,0,0,0-3.5-20.8,38,38,0,0,0-9.8-14.4,40.82,40.82,0,0,0-15.4-8.3,70.75,70.75,0,0,0-20.3-2.7,118.69,118.69,0,0,0-18.5,1.7,144.56,144.56,0,0,0-20.6,5.2c0,2.9.1,5.4,0.3,7.7a46.42,46.42,0,0,0,1.1,6.5,30.69,30.69,0,0,0,2.2,6.2c0.9,2,2.1,4.2,3.3,6.7a89.28,89.28,0,0,1,14.3-3.8,71.44,71.44,0,0,1,12.1-1.2,63.26,63.26,0,0,1,7.6.5,27.49,27.49,0,0,1,6.7,1.9,13.07,13.07,0,0,1,5,4,12,12,0,0,1,2.2,6.5H282.2a88.41,88.41,0,0,0-16.8,1.6,51.32,51.32,0,0,0-15.8,5.7,34.21,34.21,0,0,0-11.7,11c-3,4.6-4.5,10.4-4.5,17.5s1.1,13.3,3.6,18.3m-58.8,18c3.6,0.6,6.9,1,9.9,1.3s5.8,0.4,8.2.4,5.2-.1,8.2-0.4,6.4-.7,10.2-1.3V188a69.39,69.39,0,0,0-9.3-1.5c-3.2-.3-6.1-0.4-8.9-0.4s-5.9.1-9,.4a79.7,79.7,0,0,0-9.4,1.5v38h-32V188a69.39,69.39,0,0,0-9.3-1.5c-3.2-.3-6.1-0.4-8.9-0.4s-5.9.1-9,.4a79.7,79.7,0,0,0-9.4,1.5V299.5c3.6,0.6,6.9,1,9.9,1.3s5.8,0.4,8.2.4,5.2-.1,8.2-0.4,6.4-.7,10.2-1.3v-41h32v40.9h0.2Z" transform="translate(-12.2 -10.11)"/><path d="M279.3,164.3a63,63,0,0,0-4.6-7c0.1,0-.7-1-0.6-1-0.6-.9-1.4-1.8-2-2.8a0.35,0.35,0,0,1-.1-0.2h0a143.5,143.5,0,0,0-237.9,7.8h0l-1.2,2.1a37.91,37.91,0,0,0-2,3.4c-0.7,1.2-1.3,2.4-1.9,3.6-0.4.8-.9,1.6-1.3,2.4-0.8,1.6-1.6,3.3-2.4,4.9l-0.6,1.2a125.45,125.45,0,0,0-5,12.8,2.27,2.27,0,0,0-.1.4c-0.7,2-1.3,4-1.9,6-0.2.9-.5,1.7-0.7,2.6-0.3,1.3-.7,2.6-1,3.9-0.3,1.1-.5,2.2-0.7,3.3s-0.5,2.2-.7,3.3L14,214.6c-0.2,1-.3,2-0.5,3.1s-0.3,2.4-.4,3.7c-0.1,1-.2,2.1-0.3,3.1l-0.3,3.6c-0.1,1.1-.1,2.2-0.2,3.2,0,1.2-.1,2.3-0.1,3.5v6.8c0,1.4.1,2.8,0.2,4.1,0.1,0.9.1,1.8,0.2,2.7,0.1,1.7.3,3.5,0.5,5.2a7.57,7.57,0,0,1,.1,1.5v0.2c0.3,2.3.6,4.5,1,6.8,0.2,1,.4,1.9.6,2.9,0.2,1.2.5,2.5,0.7,3.7s0.6,2.6.9,3.8a19.73,19.73,0,0,0,.7,2.6l1.2,4.2a18.66,18.66,0,0,0,.7,2.2c0.5,1.4,1,2.9,1.5,4.3,0.2,0.7.5,1.3,0.7,2,0.5,1.5,1.1,2.9,1.7,4.3,0.3,0.6.5,1.3,0.8,1.9,0.6,1.4,1.2,2.8,1.9,4.2,0.3,0.6.6,1.3,0.9,1.9,0.7,1.4,1.3,2.7,2,4.1a19.83,19.83,0,0,0,1.1,2c0.7,1.3,1.4,2.6,2.1,3.8,0.4,0.7.9,1.5,1.3,2.2,0.7,1.2,1.4,2.3,2.2,3.5,0.5,0.8,1.1,1.6,1.7,2.5s1.4,2.1,2.1,3.1,1.3,1.8,2,2.7l2.1,2.7c0.7,0.9,1.4,1.7,2.1,2.6s1.5,1.8,2.2,2.7c0.5,0.5,1,1.1,1.5,1.6a142.37,142.37,0,0,0,24.3,21.6c0.2,0.1.3,0.2,0.5,0.3,1.8,1.2,3.5,2.4,5.3,3.6a25.29,25.29,0,0,0,2.2,1.3c1.3,0.8,2.5,1.5,3.8,2.3,1,0.6,2,1.1,2.9,1.6,1.1,0.6,2.1,1.2,3.2,1.7s2.2,1.1,3.3,1.6a29.17,29.17,0,0,0,3.1,1.4,34.54,34.54,0,0,0,3.4,1.4c1.1,0.4,2.1.9,3.2,1.3s2.1,0.8,3.2,1.2,2.3,0.8,3.5,1.2c1,0.3,2,.6,2.9.9l3.9,1.2a25,25,0,0,1,2.6.7c1.4,0.4,2.9.7,4.4,1.1,0.7,0.2,1.5.3,2.2,0.5l4.8,0.9c0.6,0.1,1.2.2,1.9,0.3,1.7,0.3,3.4.5,5.1,0.7,0.6,0.1,1.1.1,1.7,0.2,1.7,0.2,3.5.4,5.2,0.5,0.6,0,1.2.1,1.8,0.1,1.7,0.1,3.4.2,5.2,0.2h7c1,0,2.1-.1,3.1-0.1,1.3-.1,2.6-0.1,3.9-0.2l6.6-.6h0.4c3.2-.4,6.3-0.9,9.5-1.5,0.7-.1,1.4-0.3,2-0.4,3.1-.6,6.2-1.4,9.3-2.2,0.1,0,.2-0.1.3-0.1,3-.8,6-1.8,9-2.9,0.4-.1.8-0.3,1.2-0.4a143.44,143.44,0,0,0,64.4-46.6c0.6-.8,1.2-1.7,1.8-2.5-17.1-4.3-31.5-14.5-41.3-23.2-3.7,3.9-8.1,8.2-13.7,13.5a97.5,97.5,0,0,1-50.1,20.2c-5.6.2-12,.1-20.2,0-1.2-.1-2.5-0.2-3.7-0.4-0.9-.1-1.8-0.3-2.7-0.4-1.6-.3-3.3-0.6-4.9-1-1.1-.3-2.2-0.5-3.3-0.8-1.4-.4-2.8-0.8-4.1-1.2s-2.7-.9-4-1.4c-1.1-.4-2.2-0.8-3.3-1.3-1.5-.6-2.9-1.2-4.4-1.9-0.9-.4-1.9-0.9-2.8-1.3l-4.5-2.4c-0.9-.5-1.7-1-2.5-1.5-1.4-.9-2.9-1.8-4.3-2.8-0.9-.6-1.7-1.2-2.6-1.8-1.3-.9-2.5-1.9-3.8-2.9s-2.3-2-3.5-3-2.2-1.9-3.2-2.9-2-2.1-2.9-3.1a76.81,76.81,0,0,1-5.9-6.9c-0.7-.9-1.4-1.7-2-2.6-1-1.4-1.9-2.8-2.8-4.2-0.7-1-1.3-2-2-3.1-0.8-1.4-1.6-2.8-2.3-4.2-0.6-1.2-1.3-2.4-1.8-3.7s-1.3-2.7-1.8-4.1-1.2-2.9-1.7-4.4c-0.5-1.2-.9-2.5-1.3-3.8a51.18,51.18,0,0,1-1.5-5.6c-0.3-1-.5-2-0.8-3a84.45,84.45,0,0,1-1.5-9,88.88,88.88,0,0,1-.7-8.9v-3.1c0-1.9,0-3.7.1-5.6,0.1-1.4.2-2.7,0.3-4.1s0.3-2.9.5-4.3c0.2-1.6.5-3.2,0.8-4.8,0.2-1,.4-2,0.7-3,0.4-1.9.9-3.8,1.4-5.7v-0.1a104.37,104.37,0,0,1,9.5-21.7h0a90.07,90.07,0,0,1,7-10.4,96.93,96.93,0,0,1,117.5-28.2s20.5,5.5,40.6,26.7c0.6-.5,1.3-0.9,2-1.4,6-3.2,27.6-12.6,39.8-10.8" transform="translate(-12.2 -10.11)"/><path d="M260.8,15.7A72,72,0,0,1,161,81.1a72,72,0,0,1,99.8-65.4" transform="translate(-12.2 -10.11)"/><path d="M145.9,81.5a46.1,46.1,0,0,1-64.1-42,46.1,46.1,0,0,1,64.1,42" transform="translate(-12.2 -10.11)"/></svg>